<?xml version="1.0" encoding="iso-8859-1"?>
<!-- Uploaded to: SVG Repo, www.svgrepo.com, Generator: SVG Repo Mixer Tools -->
<svg fill="#000000" height="800px" width="800px" version="1.1" id="Layer_1" xmlns="http://www.w3.org/2000/svg" xmlns:xlink="http://www.w3.org/1999/xlink" 
	 viewBox="0 0 512 512" xml:space="preserve">
<g>
	<g>
		<path d="M150.261,339.478c-27.618,0-50.087-22.469-50.087-50.087c0-9.22-7.475-16.696-16.696-16.696s-16.696,7.475-16.696,16.696
			c0,46.03,37.448,83.478,83.478,83.478c9.22,0,16.696-7.475,16.696-16.696C166.957,346.953,159.481,339.478,150.261,339.478z"/>
	</g>
</g>
<g>
	<g>
		<path d="M495.304,105.739H300.522V72.348h194.783c9.22,0,16.696-7.475,16.696-16.696c0-9.22-7.475-16.696-16.696-16.696H297.65
			c-6.892-19.432-25.45-33.391-47.215-33.391c-12.819,0-24.523,4.846-33.391,12.794c-8.869-7.948-20.572-12.794-33.391-12.794
			c-12.819,0-24.523,4.846-33.391,12.794c-8.869-7.948-20.572-12.794-33.391-12.794c-21.766,0-40.323,13.96-47.215,33.391H16.696
			C7.475,38.957,0,46.432,0,55.652c0,9.22,7.475,16.696,16.696,16.696h50.087v33.391H16.696C7.475,105.739,0,113.214,0,122.435
			c0,9.22,7.475,16.696,16.696,16.696h50.087v62.609c0,1.411,0.085,2.803,0.237,4.174H16.696C7.475,205.913,0,213.388,0,222.609
			v66.783c0,65.299,41.873,120.992,100.174,141.666v25.291c0,27.618,22.469,50.087,50.087,50.087h133.565
			c27.618,0,50.087-22.469,50.087-50.087v-25.291c58.301-20.674,100.174-76.367,100.174-141.666v-66.783
			c0-9.22-7.475-16.696-16.696-16.696H300.285c0.152-1.371,0.237-2.763,0.237-4.174V139.13h194.783
			c9.22,0,16.696-7.475,16.696-16.696C512,113.214,504.525,105.739,495.304,105.739z M233.739,55.652
			c0-9.206,7.49-16.696,16.696-16.696c9.206,0,16.696,7.49,16.696,16.696v146.087c0,2.302-1.873,4.174-4.174,4.174h-25.044
			c-2.302,0-4.174-1.872-4.174-4.174V55.652z M166.957,55.652c0-9.206,7.49-16.696,16.696-16.696c9.206,0,16.696,7.49,16.696,16.696
			v146.087c0,2.302-1.872,4.174-4.174,4.174H171.13c-2.302,0-4.174-1.872-4.174-4.174V55.652z M100.174,55.652
			c0-9.206,7.49-16.696,16.696-16.696s16.696,7.49,16.696,16.696v146.087c0,2.302-1.872,4.174-4.174,4.174h-25.043
			c-2.302,0-4.174-1.872-4.174-4.174V55.652z M300.522,456.348c0,9.206-7.49,16.696-16.696,16.696H150.261
			c-9.206,0-16.696-7.49-16.696-16.696v-16.696h16.696h133.565h16.696V456.348z M400.696,239.304v50.087
			c0,64.442-52.428,116.87-116.87,116.87H150.261c-64.442,0-116.87-52.428-116.87-116.87v-50.087
			C36.752,239.304,396.868,239.304,400.696,239.304z"/>
	</g>
</g>
</svg>